<svg width="67" height="67" viewBox="0 0 67 67" fill="none" xmlns="http://www.w3.org/2000/svg">
    <rect width="67" height="67" rx="33.5" fill="url(#paint0_linear)"/>
    <path d="M41.1538 13.3999H25.1762C18.6828 13.3999 13.4 18.6827 13.4 25.1761V41.1537C13.4 47.6471 18.6828 52.9299 25.1762 52.9299H41.1538C47.6472 52.9299 52.93 47.6471 52.93 41.1537V25.1761C52.93 18.6827 47.6472 13.3999 41.1538 13.3999ZM48.9533 41.1537C48.9533 45.4612 45.4613 48.9532 41.1538 48.9532H25.1762C20.8687 48.9532 17.3767 45.4612 17.3767 41.1537V25.1761C17.3767 20.8685 20.8687 17.3766 25.1762 17.3766H41.1538C45.4613 17.3766 48.9533 20.8685 48.9533 25.1761V41.1537Z" fill="white"/>
    <path d="M33.165 22.9412C27.5276 22.9412 22.9412 27.5276 22.9412 33.165C22.9412 38.8023 27.5276 43.3888 33.165 43.3888C38.8025 43.3888 43.3889 38.8024 43.3889 33.165C43.3889 27.5275 38.8025 22.9412 33.165 22.9412ZM33.165 39.4122C29.7148 39.4122 26.9179 36.6153 26.9179 33.165C26.9179 29.7148 29.7149 26.9179 33.165 26.9179C36.6153 26.9179 39.4122 29.7148 39.4122 33.165C39.4122 36.6152 36.6152 39.4122 33.165 39.4122Z" fill="white"/>
    <path d="M43.4086 25.4676C44.7617 25.4676 45.8585 24.3707 45.8585 23.0177C45.8585 21.6647 44.7617 20.5679 43.4086 20.5679C42.0556 20.5679 40.9588 21.6647 40.9588 23.0177C40.9588 24.3707 42.0556 25.4676 43.4086 25.4676Z" fill="white"/>
    <defs>
        <linearGradient id="paint0_linear" x1="50.25" y1="9.7841e-07" x2="17.42" y2="67" gradientUnits="userSpaceOnUse">
            <stop stop-color="#7025C4"/>
            <stop offset="0.286458" stop-color="#C22175"/>
            <stop offset="0.661458" stop-color="#C74C4E"/>
            <stop offset="1" stop-color="#E09B3E"/>
        </linearGradient>
    </defs>
</svg>
