<svg xmlns="http://www.w3.org/2000/svg" display="none">
    <symbol id="shopping-cart" viewBox="0 0 54 54">
        <path d="M42.7561 38.2444C39.0434 38.2444 36.0229 41.2649 36.0229 44.9776C36.0229 48.6902 39.0435 51.7107 42.7561 51.7107C46.4687 51.7107 49.4893 48.6902 49.4893 44.9776C49.4893 41.2649 46.4687 38.2444 42.7561 38.2444ZM42.7561 47.6708C41.2708 47.6708 40.0629 46.4629 40.0629 44.9776C40.0629 43.4922 41.2708 42.2843 42.7561 42.2843C44.2414 42.2843 45.4494 43.4922 45.4494 44.9776C45.4494 46.4629 44.2414 47.6708 42.7561 47.6708Z"/>
        <path d="M53.5707 12.2214C53.1883 11.7319 52.6018 11.4464 51.9804 11.4464H12.4686L10.6506 3.83992C10.4331 2.93098 9.62039 2.28931 8.68582 2.28931H2.01995C0.904294 2.2892 0 3.1935 0 4.30915C0 5.42481 0.904294 6.3291 2.01995 6.3291H7.09144L13.6563 33.7979C13.8738 34.7075 14.6865 35.3485 15.6211 35.3485H47.0652C47.9937 35.3485 48.803 34.7156 49.0259 33.8146L53.9411 13.9517C54.0899 13.3485 53.9532 12.7108 53.5707 12.2214ZM45.4848 31.3087H17.2154L13.4341 15.4863H49.3994L45.4848 31.3087Z"/>
        <path d="M18.3147 38.2444C14.602 38.2444 11.5815 41.2649 11.5815 44.9776C11.5815 48.6902 14.6021 51.7107 18.3147 51.7107C22.0273 51.7107 25.0479 48.6902 25.0479 44.9776C25.0479 41.2649 22.0273 38.2444 18.3147 38.2444ZM18.3147 47.6708C16.8294 47.6708 15.6214 46.4629 15.6214 44.9776C15.6214 43.4922 16.8294 42.2843 18.3147 42.2843C19.8 42.2843 21.008 43.4922 21.008 44.9776C21.008 46.4629 19.8 47.6708 18.3147 47.6708Z"/>
    </symbol>

    <symbol id="mail" viewBox="0 0 17 17">
        <path d="M5.73114 8.58716L1.52588e-05 12.2103V4.81104L5.73114 8.58716Z"/>
        <path d="M17 4.81104V12.2103L11.2689 8.58716L17 4.81104Z"/>
        <path d="M1.06251 2.65625H15.9375C16.4677 2.65625 16.8885 3.0515 16.9681 3.56044L8.50002 9.13963L0.031889 3.56044C0.111576 3.0515 0.532328 2.65625 1.06251 2.65625Z"/>
        <path d="M6.70438 9.22885L8.20782 10.2191C8.29707 10.2775 8.398 10.3062 8.5 10.3062C8.602 10.3062 8.70294 10.2775 8.79219 10.2191L10.2956 9.22778L16.966 13.447C16.8842 13.9517 16.4656 14.3437 15.9375 14.3437H1.0625C0.534443 14.3437 0.115816 13.9517 0.0340042 13.447L6.70438 9.22885Z"/>
    </symbol>

    <symbol id="viber" viewBox="0 0 30 30">
        <rect width="30" height="30" rx="15" fill="#8E24AA"/>
        <path d="M22.3468 16.804C22.835 12.7716 22.1122 10.2259 20.8086 9.07442L20.8093 9.07375C18.7052 7.10741 11.5992 6.81637 9.08196 9.16207C7.9515 10.3095 7.55332 11.9935 7.50968 14.0783C7.46604 16.1637 7.41422 20.0703 11.124 21.1301H11.1274L11.124 22.7485C11.124 22.7485 11.0988 23.4042 11.5256 23.536C12.0138 23.6912 12.2347 23.3868 13.7531 21.6071C16.2922 21.8232 18.2422 21.3281 18.4638 21.2559C18.9765 21.0873 21.8777 20.7106 22.3468 16.804ZM14.0033 20.4684C14.0033 20.4684 12.3963 22.4347 11.8965 22.9452C11.7329 23.1111 11.5536 23.0958 11.5563 22.7666C11.5563 22.5505 11.5686 20.0797 11.5686 20.0797C8.42332 19.1952 8.60877 15.8687 8.64287 14.1284C8.67696 12.3876 9.0015 10.9618 9.95878 10.0017C12.1672 7.96981 18.397 8.4241 19.9843 9.88799C21.9247 11.576 21.234 16.345 21.2381 16.5076C20.8393 19.7686 18.4884 19.9753 18.0561 20.1165C17.8713 20.1767 16.1565 20.6096 14.0033 20.4684Z"
              fill="white"/>
        <path d="M14.8924 10.3838C14.6299 10.3838 14.6299 10.7852 14.8924 10.7886C16.929 10.804 18.6063 12.1969 18.6247 14.752C18.6247 15.0217 19.027 15.0183 19.0236 14.7487H19.0229C19.0011 11.9955 17.1697 10.3992 14.8924 10.3838Z"
              fill="white"/>
        <path d="M17.5713 14.3284C17.5652 14.5947 17.9668 14.6074 17.9702 14.3377C18.0036 12.8197 17.0497 11.5692 15.2572 11.4374C14.9947 11.4187 14.9674 11.8234 15.2293 11.8422C16.7838 11.9579 17.6027 12.999 17.5713 14.3284Z"
              fill="white"/>
        <path d="M17.1417 16.0552C16.8049 15.8639 16.462 15.983 16.3201 16.171L16.0236 16.5477C15.8729 16.739 15.5913 16.7136 15.5913 16.7136C13.5363 16.1803 12.9867 14.0702 12.9867 14.0702C12.9867 14.0702 12.9615 13.7845 13.1497 13.6313L13.5206 13.3302C13.706 13.1857 13.8233 12.8378 13.6345 12.4959C13.1299 11.6013 12.791 11.2929 12.6185 11.0561C12.4372 10.8333 12.1645 10.7831 11.8808 10.9336H11.8747C11.2849 11.2722 10.6392 11.9058 10.8458 12.5581C11.1983 13.2459 11.846 15.4384 13.9106 17.0949C14.8808 17.8784 16.4163 18.6813 17.0681 18.8666L17.0742 18.876C17.7165 19.086 18.3411 18.4277 18.6745 17.8316V17.8269C18.8224 17.5385 18.7733 17.2655 18.5572 17.0869C18.174 16.7203 17.5958 16.3155 17.1417 16.0552Z"
              fill="white"/>
        <path d="M15.5381 12.9308C16.1933 12.9683 16.5111 13.3042 16.5452 13.994C16.5574 14.2636 16.9563 14.2449 16.944 13.9752C16.9004 13.0747 16.4217 12.5729 15.5599 12.5261C15.2974 12.5107 15.2729 12.9155 15.5381 12.9308Z"
              fill="white"/>
    </symbol>

    <symbol id="whatsapp" viewBox="0 0 30 30">
        <rect width="30" height="30" rx="15" fill="#4CAF50"/>
        <path d="M15.0019 7.5H14.9981C10.8628 7.5 7.5 10.8637 7.5 15C7.5 16.6406 8.02875 18.1613 8.92781 19.3959L7.99313 22.1822L10.8759 21.2606C12.0619 22.0463 13.4766 22.5 15.0019 22.5C19.1372 22.5 22.5 19.1353 22.5 15C22.5 10.8647 19.1372 7.5 15.0019 7.5Z"
              fill="white"/>
        <path d="M19.3659 18.0908C19.185 18.6017 18.4669 19.0255 17.8941 19.1492C17.5022 19.2327 16.9903 19.2992 15.2672 18.5849C13.0631 17.6717 11.6437 15.4321 11.5331 15.2867C11.4272 15.1414 10.6425 14.1008 10.6425 13.0246C10.6425 11.9483 11.189 11.4242 11.4094 11.1992C11.5903 11.0146 11.8894 10.9302 12.1762 10.9302C12.269 10.9302 12.3525 10.9349 12.4275 10.9386C12.6478 10.948 12.7584 10.9611 12.9037 11.3089C13.0847 11.7449 13.5253 12.8211 13.5778 12.9317C13.6312 13.0424 13.6847 13.1924 13.6097 13.3377C13.5394 13.4877 13.4775 13.5542 13.3669 13.6817C13.2562 13.8092 13.1512 13.9067 13.0406 14.0436C12.9394 14.1627 12.825 14.2902 12.9525 14.5105C13.08 14.7261 13.5206 15.4452 14.1694 16.0227C15.0066 16.768 15.6853 17.0061 15.9281 17.1074C16.1091 17.1824 16.3247 17.1646 16.4569 17.0239C16.6247 16.843 16.8319 16.543 17.0428 16.2477C17.1928 16.0358 17.3822 16.0096 17.5809 16.0846C17.7834 16.1549 18.855 16.6846 19.0753 16.7942C19.2956 16.9049 19.4409 16.9574 19.4944 17.0502C19.5469 17.143 19.5469 17.5789 19.3659 18.0908Z"
              fill="#4CAF50"/>
    </symbol>

    <symbol id="vk" viewBox="0 0 67 67">
        <rect width="67" height="67" rx="33.5" fill="#436EAB"/>
        <path d="M46.3612 37.7527C47.6058 38.9797 48.9194 40.1341 50.0357 41.4848C50.5288 42.0851 50.9956 42.7044 51.3528 43.401C51.8588 44.3912 51.4005 45.4809 50.5212 45.54L45.0551 45.5375C43.6453 45.6556 42.5207 45.0826 41.5751 44.1092C40.8183 43.3309 40.1174 42.5025 39.3898 41.6978C39.0914 41.369 38.7792 41.0595 38.4062 40.8149C37.66 40.3259 37.0123 40.4756 36.5859 41.2614C36.1516 42.0607 36.0531 42.9457 36.0104 43.8365C35.9519 45.1361 35.5628 45.4778 34.2699 45.5373C31.5069 45.6689 28.8846 45.2468 26.4485 43.8394C24.3008 42.5986 22.6354 40.8469 21.1857 38.8639C18.3635 35.0025 16.202 30.7594 14.2595 26.3975C13.8222 25.4148 14.142 24.8872 15.2159 24.8685C16.999 24.8335 18.782 24.836 20.5672 24.866C21.292 24.8767 21.7718 25.2964 22.0516 25.9878C23.0164 28.3831 24.1968 30.662 25.6786 32.7744C26.0732 33.3368 26.4756 33.8992 27.0485 34.295C27.6824 34.7333 28.165 34.5881 28.4632 33.875C28.6524 33.4229 28.7353 32.9359 28.7779 32.4518C28.9192 30.7859 28.9378 29.1228 28.6901 27.4628C28.5379 26.4268 27.9601 25.7561 26.9362 25.5601C26.4138 25.4601 26.4916 25.2638 26.7445 24.9627C27.1839 24.4434 27.5971 24.1201 28.4208 24.1201H34.5983C35.5708 24.3139 35.7868 24.7551 35.9199 25.7431L35.9252 32.6719C35.9146 33.0544 36.1144 34.1896 36.7967 34.4427C37.3428 34.623 37.7028 34.1818 38.0305 33.8322C39.5095 32.2471 40.5651 30.3738 41.5082 28.4341C41.9267 27.5811 42.2866 26.6954 42.6353 25.8103C42.8937 25.1536 43.2992 24.8305 44.0318 24.8448L49.9772 24.8501C50.1535 24.8501 50.3319 24.8527 50.5026 24.8822C51.5044 25.0546 51.779 25.4898 51.4696 26.4776C50.982 28.0275 50.0334 29.3191 49.1059 30.6166C48.1144 32.0019 47.0539 33.3398 46.0707 34.7333C45.1673 36.006 45.2391 36.6474 46.3612 37.7527Z"
              fill="white"/>
    </symbol>


    <symbol id="icon-1" viewBox="0 0 48 48">
        <path d="M24 0C14.6951 0 7.125 7.57013 7.125 16.875C7.125 20.0188 7.99584 23.0869 9.64397 25.7486L23.0394 47.3352C23.296 47.7487 23.7481 48 24.2343 48C24.238 48 24.2417 48 24.2454 48C24.7358 47.9962 25.1888 47.7371 25.4408 47.3164L38.4948 25.5206C40.052 22.9151 40.875 19.9255 40.875 16.875C40.875 7.57013 33.3049 0 24 0ZM36.0812 24.0767L24.213 43.8924L12.0344 24.2668C10.6626 22.0513 9.91875 19.4953 9.91875 16.875C9.91875 9.12094 16.2459 2.79375 24 2.79375C31.7541 2.79375 38.0719 9.12094 38.0719 16.875C38.0719 19.4176 37.3771 21.9082 36.0812 24.0767Z"
              fill="#2182DB"/>
        <path d="M24 8.4375C19.3476 8.4375 15.5625 12.2226 15.5625 16.875C15.5625 21.4977 19.286 25.3125 24 25.3125C28.7722 25.3125 32.4375 21.4469 32.4375 16.875C32.4375 12.2226 28.6524 8.4375 24 8.4375ZM24 22.5187C20.8822 22.5187 18.3563 19.9844 18.3563 16.875C18.3563 13.7734 20.8984 11.2313 24 11.2313C27.1016 11.2313 29.6344 13.7734 29.6344 16.875C29.6344 19.939 27.1672 22.5187 24 22.5187Z"
              fill="#2182DB"/>
    </symbol>

    <symbol id="icon-2" viewBox="0 0 78 78">
        <g clip-path="url(#clip0)">
            <path d="M56.1342 59.8791L67.7881 51.21C68.714 50.5212 68.9062 49.2124 68.2175 48.2865L37.8001 7.39671C37.1113 6.47084 35.8025 6.27861 34.8766 6.96736L23.2227 15.6365C22.2968 16.3253 22.1046 17.6341 22.7934 18.56L53.2168 59.4579C53.9077 60.3773 55.2115 60.5655 56.1342 59.8791ZM53.481 56.4308L56.4532 54.2198C56.9004 53.8871 56.9933 53.2548 56.6606 52.8075C56.3279 52.3603 55.6956 52.2674 55.2483 52.6001L52.2842 54.8051L51.0793 53.1853L54.0434 50.9804C54.4907 50.6477 54.5835 50.0153 54.2508 49.5681C53.9181 49.1208 53.2858 49.028 52.8385 49.3607L49.8745 51.5656L48.6696 49.9459L54.2171 45.8192C54.6643 45.4865 54.7572 44.8541 54.4245 44.4069C54.0918 43.9596 53.4595 43.8667 53.0122 44.1994L47.4566 48.3322L46.2517 46.7125L49.2239 44.5015C49.6711 44.1688 49.764 43.5365 49.4313 43.0892C49.0986 42.642 48.4662 42.5491 48.019 42.8818L45.0549 45.0868L43.85 43.467L46.8141 41.2621C47.2613 40.9294 47.3542 40.297 47.0215 39.8498C46.6888 39.4025 46.0565 39.3097 45.6092 39.6424L42.6451 41.8473L41.4402 40.2276L46.9878 36.1009C47.435 35.7682 47.5279 35.1358 47.1952 34.6886C46.8625 34.2413 46.2301 34.1484 45.7829 34.4811L40.2272 38.6139L39.0224 36.9942L41.9945 34.7832C42.4418 34.4505 42.5347 33.8182 42.202 33.3709C41.8693 32.9237 41.2369 32.8308 40.7897 33.1635L37.8256 35.3684L36.6207 33.7487L39.5848 31.5438C40.032 31.2111 40.1249 30.5787 39.7922 30.1315C39.4595 29.6842 38.8271 29.5914 38.3799 29.9241L35.4158 32.129L34.2109 30.5093L39.7584 26.3826C40.2057 26.0499 40.2985 25.4175 39.9658 24.9702C39.6332 24.523 39.0008 24.4301 38.5535 24.7628L32.9979 28.8956L31.793 27.2759L34.7652 25.0649C35.2125 24.7322 35.3053 24.0999 34.9726 23.6526C34.6399 23.2054 34.0076 23.1125 33.5603 23.4452L30.5962 25.6501L29.3913 24.0304L32.3554 21.8255C32.8027 21.4928 32.8955 20.8604 32.5628 20.4132C32.2301 19.9659 31.5978 19.8731 31.1505 20.2058L28.1865 22.4107L26.9816 20.791L32.5291 16.6642C32.9763 16.3315 33.0692 15.6992 32.7365 15.2519C32.4038 14.8047 31.7715 14.7118 31.3242 15.0445L25.7686 19.1773L24.4191 17.3632L24.4276 17.2562L36.1722 8.60762L66.5751 49.5963L54.8305 58.2449L53.481 56.4308Z"
                  fill="#2182DB"/>
            <path d="M36.0948 65.3762C36.7665 66.2716 38.0243 66.4785 38.9475 65.8457L45.9609 60.6285C46.8867 59.9398 47.079 58.6309 46.3902 57.7051L31.3833 37.5315C31.314 37.4621 31.2551 37.383 31.2086 37.2966L15.895 25.8428C15.4503 25.5065 14.8174 25.5944 14.4811 26.0391C14.2732 26.3141 14.22 26.6763 14.3401 26.9995L20.9072 44.9597C20.9766 45.029 21.0355 45.1082 21.0819 45.1946L36.0948 65.3762ZM40.2682 52.8744L37.5551 54.8926L27.6449 41.5704L30.3459 39.536L40.2682 52.8744ZM17.3564 29.4984L21.4546 32.5385C21.2627 32.6097 21.0663 32.6676 20.8665 32.7119C20.2008 32.8345 19.5693 33.0985 19.0142 33.4858L18.8847 33.5822L17.3564 29.4984ZM19.6313 35.719C19.9876 35.126 20.6042 34.7375 21.2928 34.6717C21.9838 34.5598 22.6289 34.2544 23.1535 33.7908L28.8819 38.1091L22.3139 42.9949L19.6313 35.719ZM23.2393 44.8477L25.9928 42.7994L35.903 56.1216L33.1495 58.1699L23.2393 44.8477ZM34.3544 59.7896L41.4407 54.5182L44.7541 58.9725L37.6317 64.1953L34.3544 59.7896Z"
                  fill="#2182DB"/>
        </g>
        <defs>
            <clipPath id="clip0">
                <rect width="55.1414" height="55.1414" fill="white"
                      transform="translate(77.1541 44.2427) rotate(143.355)"/>
            </clipPath>
        </defs>
    </symbol>

    <symbol id="icon-3" viewBox="0 0 53 54">
        <g clip-path="url(#clip0)">
            <path d="M36.0255 16.3633C35.453 16.3633 34.9883 16.8346 34.9883 17.4176C34.9883 18.0001 35.453 18.4722 36.0255 18.4722C36.5992 18.4722 37.0626 18.0001 37.0626 17.4176C37.0626 16.8346 36.5992 16.3633 36.0255 16.3633Z"
                  fill="#2182DB"/>
            <path d="M17.1804 35.5261C16.6067 35.5261 16.1432 35.9987 16.1432 36.5808C16.1432 37.1642 16.6067 37.6355 17.1804 37.6355C17.7528 37.6355 18.2175 37.1642 18.2175 36.5808C18.2175 35.9987 17.7528 35.5261 17.1804 35.5261Z"
                  fill="#2182DB"/>
            <path d="M51.8652 6.48849C51.5151 6.40568 51.1473 6.51321 50.8944 6.77276L46.5946 11.1798H44.5332L42.264 8.78903V6.66359L46.5022 2.28951C46.753 2.03079 46.8551 1.65876 46.7721 1.30486C46.6894 0.951379 46.4333 0.666284 46.0946 0.550103C45.0299 0.185082 43.9158 0.00010006 42.7826 0.00010006C39.4044 0.00010006 36.3354 1.60191 34.3623 4.39477C32.5157 7.00924 31.9464 10.2133 32.762 13.2797L25.1221 21.0485L12.3939 8.07588V5.5298C12.3939 5.15942 12.2027 4.81582 11.8903 4.62548L4.55672 0.150475C4.14833 -0.098777 3.62609 -0.0332709 3.28982 0.309091L0.356537 3.29147C0.0202629 3.63383 -0.0441557 4.16488 0.200554 4.58017L4.60048 12.0376C4.78765 12.3552 5.12514 12.5492 5.48937 12.5497L7.99238 12.5505L20.7218 25.5231L13.111 33.2623C10.0955 32.4334 6.94305 33.0131 4.37076 34.8921C1.62587 36.8973 0.0518646 40.0173 0.0518646 43.4524C0.0518646 44.6043 0.233777 45.7377 0.592739 46.82C0.707396 47.1665 0.990595 47.4281 1.34064 47.5105C1.6911 47.5933 2.05857 47.4858 2.31179 47.2262L6.61123 42.8196H8.68397L11.0456 45.2211V47.3288L6.71211 51.7008C6.45687 51.9583 6.35113 52.332 6.43256 52.6884C6.51359 53.0443 6.77086 53.3323 7.11159 53.4489C8.17592 53.8139 9.29048 53.9989 10.4233 53.9989C13.8014 53.9989 16.8692 52.3979 18.8415 49.6067C20.6894 46.991 21.2594 43.7857 20.4442 40.7193L26.5567 34.5036L27.9569 36.0502L27.3144 36.7032C26.9092 37.1152 26.9092 37.7831 27.3144 38.1951C27.7195 38.6066 28.3758 38.6066 28.7814 38.1951L29.3632 37.6034L42.5006 52.1145C42.5103 52.1252 42.5204 52.1355 42.5305 52.1458C44.9614 54.6177 48.8999 54.6185 51.332 52.1454C53.7572 49.678 53.7572 45.6632 51.332 43.1958C51.3215 43.185 51.3105 43.1747 51.2996 43.1644L37.0071 29.8309L37.5825 29.2459C37.9876 28.8343 37.9876 28.1665 37.5825 27.7545C37.1773 27.3425 36.521 27.3425 36.1154 27.7545L35.4773 28.4038L33.9535 26.9816L40.0956 20.7358C40.9687 20.9732 41.8697 21.0935 42.7826 21.0935C48.5016 21.0935 53.154 16.3622 53.154 10.547C53.154 9.39465 52.9721 8.26169 52.6131 7.17898C52.4984 6.8325 52.2152 6.57089 51.8652 6.48849ZM9.15678 10.7509C8.96231 10.5527 8.69856 10.4518 8.42306 10.4518L6.07724 10.451L2.39606 4.20114L4.18398 2.38304L10.3196 6.12718V8.51259C10.3196 8.79191 10.4285 9.05971 10.6226 9.25746L23.6555 22.5403L22.1884 24.0317L9.15678 10.7509ZM35.5389 31.3239L49.88 44.7024C51.4819 46.3487 51.4771 49.0143 49.865 50.6544C48.2492 52.2974 45.6336 52.3023 44.0114 50.6688L30.8311 36.1104L35.5389 31.3239ZM34.009 29.8964L29.4248 34.5572L28.0246 33.0106L32.4853 28.4742L34.009 29.8964ZM42.7826 18.9841C41.8754 18.9841 40.9833 18.8362 40.1317 18.5445C39.7585 18.4172 39.3461 18.5152 39.0673 18.7983C33.8676 24.0857 22.6636 35.4784 18.538 39.6741C18.2593 39.9575 18.1624 40.3769 18.2884 40.7568C19.1506 43.3601 18.7382 46.1369 17.1565 48.3761C15.5792 50.6087 13.1248 51.8895 10.4233 51.8895C10.1198 51.8895 9.81799 51.8726 9.51899 51.8401L12.8133 48.5162C13.0093 48.3184 13.12 48.049 13.12 47.7676V44.784C13.12 44.5042 13.0106 44.236 12.8161 44.0383L9.84675 41.0188C9.65228 40.8211 9.38853 40.7098 9.11343 40.7098H6.17934C5.90262 40.7098 5.63766 40.8223 5.44278 41.0217L2.17444 44.3716C2.14203 44.0675 2.12582 43.7606 2.12582 43.452C2.12582 40.7045 3.38503 38.2091 5.58094 36.6052C7.78252 34.9968 10.5136 34.577 13.0742 35.4541C13.4473 35.5822 13.8598 35.4838 14.1385 35.2003C14.1956 35.1426 34.6532 14.3393 34.6678 14.3245C34.9466 14.041 35.043 13.6221 34.9174 13.2422C34.0548 10.6389 34.4665 7.86288 36.0469 5.62538C37.6254 3.39076 40.0802 2.10948 42.7821 2.10948C43.0949 2.10948 43.4057 2.12719 43.7136 2.1618L40.4878 5.49107C40.2966 5.68841 40.1896 5.95414 40.1896 6.231V9.21461C40.1896 9.48817 40.2937 9.75061 40.4805 9.94713L43.3461 12.9666C43.5414 13.1726 43.8108 13.2888 44.0924 13.2888H47.0265C47.3028 13.2888 47.5678 13.1767 47.7626 12.9769L51.031 9.62742C51.0634 9.93147 51.0796 10.2384 51.0796 10.547C51.0796 15.1991 47.3575 18.9841 42.7826 18.9841Z"
                  fill="#2182DB"/>
            <path d="M32.3589 19.6547L19.3799 32.8527C18.9752 33.2643 18.9752 33.9321 19.3799 34.3441C19.7851 34.7561 20.4418 34.7561 20.847 34.3441L33.8259 21.1461C34.2311 20.7345 34.2311 20.0667 33.8259 19.6547C33.4208 19.2427 32.764 19.2427 32.3589 19.6547Z"
                  fill="#2182DB"/>
            <path d="M45.4654 47.6719C45.8706 48.0826 46.5273 48.0826 46.9325 47.6694C47.3368 47.257 47.3356 46.5892 46.93 46.178L37.5812 36.7019C37.1757 36.2907 36.5185 36.292 36.1146 36.7044C35.7098 37.1172 35.7111 37.7846 36.1166 38.1958L45.4654 47.6719Z"
                  fill="#2182DB"/>
        </g>
        <defs>
            <clipPath id="clip0">
                <rect width="53" height="54" fill="white"/>
            </clipPath>
        </defs>
    </symbol>

    <symbol id="icon-4" viewBox="0 0 66 66">
        <path d="M65.9969 53.6331C65.9963 53.6234 65.9964 53.6139 65.9955 53.6042C65.992 53.5659 65.9865 53.5284 65.9786 53.4917C65.9778 53.4881 65.9767 53.4845 65.9758 53.4809C65.9682 53.4471 65.9587 53.4141 65.9477 53.3819C65.9447 53.3732 65.9415 53.3648 65.9383 53.3563C65.9274 53.3271 65.9152 53.2986 65.9016 53.2709C65.8993 53.266 65.8978 53.2609 65.8953 53.256L60.7246 43.0572V9.50294C60.7246 8.47091 59.8851 7.63135 58.8531 7.63135H7.14669C6.11467 7.63135 5.2751 8.47091 5.2751 9.50294V43.057L0.104543 53.2559C0.102094 53.2608 0.100547 53.2658 0.0982266 53.2707C0.0846914 53.2985 0.0725742 53.3269 0.0616172 53.3561C0.0583945 53.3646 0.0551719 53.3731 0.052207 53.3817C0.04125 53.4141 0.0317109 53.4472 0.0241055 53.481C0.023332 53.4845 0.0221719 53.4879 0.0213984 53.4914C0.0135352 53.5283 0.00799219 53.5658 0.00451172 53.6041C0.00360938 53.6136 0.00360938 53.6233 0.00309375 53.6328C0.00180469 53.6529 0 53.6728 0 53.6932V56.1457C0 57.3715 0.99709 58.3686 2.22286 58.3686H63.7771C65.0029 58.3686 66 57.3715 66 56.1457V53.6932C66 53.6728 65.9982 53.6529 65.9969 53.6331ZM7.20882 9.5652H58.7912V42.3214H7.20882V9.5652ZM6.83577 44.2549H59.1641L63.459 52.7262H42.2178L41.1516 48.8605C40.9346 48.0735 40.213 47.5238 39.3966 47.5238H26.6032C25.7868 47.5238 25.065 48.0735 24.8481 48.8603L23.7819 52.7262H2.54087L6.83577 44.2549ZM40.212 52.7264H25.788L26.6894 49.4576H39.3106L40.212 52.7264ZM64.0664 56.1456C64.0664 56.3051 63.9366 56.4349 63.7771 56.4349H2.22286C2.0634 56.4349 1.93359 56.3051 1.93359 56.1456V54.6598H64.0664V56.1456Z"
              fill="#2182DB"/>
        <path d="M55.7619 27.5544C55.2278 27.5544 54.7951 27.9872 54.7951 28.5212V38.3252H11.2049V28.5212C11.2049 27.9872 10.7722 27.5544 10.2381 27.5544C9.70404 27.5544 9.2713 27.9872 9.2713 28.5212V38.7427C9.2713 39.5787 9.95128 40.2588 10.7874 40.2588H55.2127C56.0487 40.2588 56.7288 39.5788 56.7288 38.7427V28.5212C56.7287 27.9874 56.2959 27.5544 55.7619 27.5544Z"
              fill="#2182DB"/>
        <path d="M55.2126 11.6277H10.7874C9.95141 11.6277 9.2713 12.3077 9.2713 13.1438V23.3652C9.2713 23.8993 9.70404 24.332 10.2381 24.332C10.7722 24.332 11.2049 23.8993 11.2049 23.3652V13.5613H54.7951V23.3652C54.7951 23.8993 55.2278 24.332 55.7619 24.332C56.2959 24.332 56.7287 23.8993 56.7287 23.3652V13.1438C56.7287 12.3075 56.0487 11.6277 55.2126 11.6277Z"
              fill="#2182DB"/>
    </symbol>

    <symbol id="search-icon" viewBox="0 0 13 13">
        <path d="M8.99551 7.7142C10.556 5.51062 10.0341 2.45932 7.83053 0.899179C5.62696 -0.660958 2.57565 -0.139421 1.01551 2.06453C-0.544625 4.26811 -0.0230878 7.31904 2.18086 8.87918C3.75367 9.99271 5.83311 10.0785 7.49204 9.09875L11.0966 12.6817C11.4858 13.0914 12.1333 13.1078 12.543 12.7186C12.9527 12.3297 12.9691 11.6822 12.5803 11.2725C12.568 11.2595 12.5561 11.2475 12.543 11.2352L8.99551 7.7142ZM5.00253 8.04822C3.26121 8.0486 1.84945 6.63795 1.84833 4.89663C1.84796 3.15532 3.25861 1.74355 5.00029 1.74281C6.73937 1.74206 8.15039 3.15047 8.15374 4.88955C8.15673 6.63124 6.74683 8.04524 5.00477 8.04822C5.00402 8.04822 5.00365 8.04822 5.00253 8.04822Z"/>
    </symbol>

    <symbol id="location" viewBox="0 0 16 21">
        <path d="M7.60541 0C3.41177 0 0 3.41177 0 7.60537C0 12.8098 6.8061 20.4501 7.09587 20.7728C7.36805 21.076 7.84326 21.0755 8.11495 20.7728C8.40473 20.4501 15.2108 12.8098 15.2108 7.60537C15.2107 3.41177 11.799 0 7.60541 0ZM7.60541 11.4318C5.49548 11.4318 3.77898 9.7153 3.77898 7.60537C3.77898 5.49544 5.49553 3.77894 7.60541 3.77894C9.7153 3.77894 11.4318 5.49548 11.4318 7.60541C11.4318 9.71534 9.7153 11.4318 7.60541 11.4318Z"/>
    </symbol>

    <symbol id="call" viewBox="0 0 12 12">
        <path d="M11.0371 7.87663C10.3024 7.87663 9.58106 7.76172 8.89747 7.53581C8.5625 7.42156 8.15072 7.52638 7.94628 7.73634L6.597 8.75491C5.03222 7.91963 4.06834 6.95606 3.24447 5.40303L4.23306 4.08891C4.48991 3.83241 4.58203 3.45772 4.47166 3.10616C4.24478 2.41897 4.12953 1.69794 4.12953 0.962937C4.12956 0.431969 3.69759 0 3.16666 0H0.962906C0.431969 0 0 0.431969 0 0.962906C0 7.04884 4.95119 12 11.0371 12C11.5681 12 12 11.568 12 11.0371V8.8395C12 8.30859 11.568 7.87663 11.0371 7.87663Z"/>
    </symbol>

    <symbol id="arrow-right" viewBox="0 0 10 10">
        <path d="M4.94971 0.849121L9.05025 4.94967L4.94971 9.05021" stroke="white" stroke-linecap="round"/>
    </symbol>

    <symbol id="loading" viewBox="0 0 26 27">
        <path d="M13.792 6.164C15.4941 6.164 16.874 4.78414 16.874 3.082C16.874 1.37986 15.4941 0 13.792 0C12.0898 0 10.71 1.37986 10.71 3.082C10.71 4.78414 12.0898 6.164 13.792 6.164Z"
              fill="black"/>
        <path d="M13.7919 26.35C14.813 26.35 15.6409 25.5222 15.6409 24.501C15.6409 23.4798 14.813 22.652 13.7919 22.652C12.7707 22.652 11.9429 23.4798 11.9429 24.501C11.9429 25.5222 12.7707 26.35 13.7919 26.35Z"
              fill="black"/>
        <path d="M6.21882 8.99197C7.75086 8.99197 8.99282 7.75001 8.99282 6.21797C8.99282 4.68593 7.75086 3.44397 6.21882 3.44397C4.68679 3.44397 3.44482 4.68593 3.44482 6.21797C3.44482 7.75001 4.68679 8.99197 6.21882 8.99197Z"
              fill="black"/>
        <path d="M21.365 22.904C22.216 22.904 22.906 22.2141 22.906 21.363C22.906 20.512 22.216 19.822 21.365 19.822C20.5139 19.822 19.824 20.512 19.824 21.363C19.824 22.2141 20.5139 22.904 21.365 22.904Z"
              fill="black"/>
        <path d="M3.08194 16.257C4.44333 16.257 5.54694 15.1534 5.54694 13.792C5.54694 12.4306 4.44333 11.327 3.08194 11.327C1.72056 11.327 0.616943 12.4306 0.616943 13.792C0.616943 15.1534 1.72056 16.257 3.08194 16.257Z"
              fill="black"/>
        <path d="M24.501 15.023C25.1815 15.023 25.733 14.4714 25.733 13.791C25.733 13.1106 25.1815 12.559 24.501 12.559C23.8206 12.559 23.269 13.1106 23.269 13.791C23.269 14.4714 23.8206 15.023 24.501 15.023Z"
              fill="black"/>
        <path d="M4.69402 19.84C3.85102 20.683 3.85102 22.047 4.69402 22.89C5.53602 23.733 6.90202 23.733 7.74402 22.89C8.58702 22.047 8.58702 20.683 7.74402 19.84C6.90202 18.996 5.53702 18.988 4.69402 19.84Z"
              fill="black"/>
        <path d="M21.3639 7.14201C21.8743 7.14201 22.2879 6.72832 22.2879 6.21801C22.2879 5.7077 21.8743 5.29401 21.3639 5.29401C20.8536 5.29401 20.4399 5.7077 20.4399 6.21801C20.4399 6.72832 20.8536 7.14201 21.3639 7.14201Z"
              fill="black"/>
    </symbol>

    <symbol id="clicker" viewBox="0 0 22 22">
        <path d="M14.1412 3.16051C13.8469 3.29858 13.5955 3.49145 13.3927 3.72119C12.7165 3.08446 11.6976 2.88619 10.812 3.30161C10.4831 3.45592 10.2074 3.67864 9.99378 3.94497C9.32499 3.43265 8.40366 3.29918 7.59389 3.67905C7.35586 3.7907 7.14635 3.93852 6.96742 4.11252L5.8739 1.78142C5.32631 0.613914 3.93736 0.106508 2.77774 0.650489C1.61825 1.1944 1.1206 2.58682 1.66827 3.75429L5.60319 12.1425L3.27585 11.1203C3.25971 11.1134 3.24345 11.1068 3.227 11.1009C2.64266 10.8895 2.0099 10.9172 1.44528 11.1787C1.44163 11.1804 1.4382 11.182 1.43455 11.1837C0.872548 11.4474 0.448162 11.9112 0.238923 12.4908C-0.13014 13.5126 0.315691 14.5631 1.46259 15.3732C2.94682 16.4211 4.46358 17.3542 5.80194 18.1775C6.77997 18.7792 7.70383 19.3475 8.41607 19.8416C9.03391 20.2704 10.8366 21.7556 10.8549 21.7705C11.089 21.9636 11.4135 22.0045 11.688 21.8757L20.6811 17.657C20.99 17.5121 21.17 17.1845 21.1269 16.8461C21.0499 16.2459 20.352 10.9313 19.5142 9.14535L17.2374 4.29169C16.6894 3.12399 15.3007 2.61659 14.1412 3.16051ZM14.4545 5.59707C14.2746 5.21371 14.4335 4.75873 14.8084 4.58284C15.1836 4.40685 15.635 4.57557 15.8148 4.95893L18.0917 9.8126C18.6484 10.9994 19.233 14.618 19.4921 16.4793L11.4692 20.2428C10.8865 19.7676 9.80064 18.8902 9.31169 18.5508C8.56384 18.0319 7.62207 17.4526 6.62503 16.8392C5.30663 16.0283 3.81239 15.109 2.3688 14.0899C1.99186 13.8236 1.57283 13.4227 1.71673 13.0245C1.78371 12.8385 1.92289 12.6924 2.10566 12.6043C2.28536 12.5211 2.48568 12.5096 2.67225 12.5713L6.88718 14.4223C7.18677 14.554 7.53696 14.4858 7.76534 14.2517C7.99396 14.0173 8.05323 13.6657 7.91425 13.3695L3.09073 3.08701C2.91093 2.70372 3.0699 2.24884 3.44506 2.07285C3.82029 1.89683 4.27177 2.06535 4.45157 2.44864L7.56651 9.08886C7.75075 9.48162 8.21864 9.65064 8.61133 9.46643C9.00402 9.28222 9.17315 8.81437 8.98891 8.42161L7.907 6.11526C7.72729 5.73218 7.88622 5.27741 8.26124 5.10148C8.6364 4.9255 9.08771 5.094 9.26741 5.47709L10.7845 8.71107C10.9688 9.10403 11.4366 9.27295 11.8293 9.08874C12.222 8.9045 12.3913 8.43686 12.2069 8.04382L11.1252 5.73803C10.9454 5.35474 11.1043 4.89982 11.4793 4.7239C11.8545 4.54788 12.3061 4.71646 12.4859 5.09976L14.003 8.33394C14.1872 8.72663 14.6551 8.89583 15.0479 8.71159C15.4407 8.52731 15.6097 8.05935 15.4255 7.66666L14.4546 5.59701L14.4545 5.59707Z"/>
    </symbol>

</svg>